<svg width="34" height="34" viewBox="0 0 34 34" fill="none" xmlns="http://www.w3.org/2000/svg">
<path d="M23.9833 0.333344H10.0166C3.94992 0.333344 0.333252 3.95001 0.333252 10.0167V23.9667C0.333252 30.05 3.94992 33.6667 10.0166 33.6667H23.9666C30.0333 33.6667 33.6499 30.05 33.6499 23.9833V10.0167C33.6666 3.95001 30.0499 0.333344 23.9833 0.333344ZM25.3333 25.75H8.66659C7.98325 25.75 7.41659 25.1833 7.41659 24.5C7.41659 23.8167 7.98325 23.25 8.66659 23.25H25.3333C26.0166 23.25 26.5833 23.8167 26.5833 24.5C26.5833 25.1833 26.0166 25.75 25.3333 25.75ZM25.3333 18.25H8.66659C7.98325 18.25 7.41659 17.6833 7.41659 17C7.41659 16.3167 7.98325 15.75 8.66659 15.75H25.3333C26.0166 15.75 26.5833 16.3167 26.5833 17C26.5833 17.6833 26.0166 18.25 25.3333 18.25ZM25.3333 10.75H8.66659C7.98325 10.75 7.41659 10.1833 7.41659 9.50001C7.41659 8.81668 7.98325 8.25001 8.66659 8.25001H25.3333C26.0166 8.25001 26.5833 8.81668 26.5833 9.50001C26.5833 10.1833 26.0166 10.75 25.3333 10.75Z" fill="#FFD158"/>
</svg>
